# xmcd CD database file
#
# Track frame offsets:
#	150
#	39264
#	54973
#	71616
#	74301
#	90566
#	123358
#	142722
#	160043
#	179467
#	197740
#	231404
#	249585
#	269337
#	283433
#	294776
#	310262
#	325537
#
# Disc length: 4647 seconds
#
# Revision: 0
# Processed by: cddbd v1.4PL0 Copyright (c) Steve Scherf et al.
# Submitted via: NeoAudio 9.9.9
#
DISCID=fe122512
DTITLE=Merengue De Santo Domingo Vol. 15 - Merengue De Santo Domingo Vol. 15
DYEAR=2003
DGENRE=Merengue
TTITLE0=Toño Rosario - Pecaito
TTITLE1=Mala Fe - Los Tigueres
TTITLE2=Tulile - Peluca (En Vivo)
TTITLE3=Intro
TTITLE4=Charlie Varlens - Dico Malo
TTITLE5=Toño Rosario - El Pelotero
TTITLE6=Riki Castro - Agamos El Amor Con La Ropa
TTITLE7=Luis Kenton - Quiero Dejar La Silla
TTITLE8=Tulile y Jhovanny - La Burra (En Vivo)
TTITLE9=Limite 21 - Coje Tu Maleta
TTITLE10=Los Rosario - El Lapiz (Nueva Version)
TTITLE11=El Grupo Mio - Aguilucho
TTITLE12=Eta - Jay Z y Nelly
TTITLE13=Tulile - Medio Fondo (En Vivo)
TTITLE14=Toño Rosario - Yo Culi, Yo Cula (En Vivo)
TTITLE15=Calimete - Mate Dos Patos De Un Tiro
TTITLE16=Aventura - La Guerra (Nuevo)
TTITLE17=La Loca - Bonus Track (Nuevo)
EXTD=YEAR: 2003
EXTT0=
EXTT1=
EXTT2=
EXTT3=
EXTT4=
EXTT5=
EXTT6=
EXTT7=
EXTT8=
EXTT9=
EXTT10=
EXTT11=
EXTT12=
EXTT13=
EXTT14=
EXTT15=
EXTT16=
EXTT17=
PLAYORDER=
